# xmcd
#
# Track frame offsets:
#	150
#	5695
#	20634
#	31547
#	46784
#	61484
#	74213
#	81224
#	94698
#	110803
#	131107
#	146354
#
# Disc length: 2157 seconds
# Revision: 0
# Processed by: cddbd v1.5.2PL0 Copyright (c) Steve Scherf et al.
# Submitted via: dBpowerAMP V12.0
#
DISCID=a6086b0c
DTITLE=The Cleverlys - The Cleverlys
DYEAR=2011
DGENRE=Bluegrass
TTITLE0=Eye of the Cage
TTITLE1=I Gotta Feelin'
TTITLE2=Born to Be with You
TTITLE3=Girl with No Pantyline
TTITLE4=Angel
TTITLE5=Tennicles
TTITLE6=Wheel Hoss
TTITLE7=Intro the trio
TTITLE8=Billionaire
TTITLE9=Single Ladies (Put a Ring On It)
TTITLE10=In the Pines/Ain't No Sunshine
TTITLE11=Walk Like an Eqyptian
EXTD=
EXTT0=
EXTT1=
EXTT2=
EXTT3=
EXTT4=
EXTT5=
EXTT6=
EXTT7=
EXTT8=
EXTT9=
EXTT10=
EXTT11=
PLAYORDER=
